<svg width="256" height="256" viewBox="0 0 256 256" fill="none" xmlns="http://www.w3.org/2000/svg">
<g clip-path="url(#clip0_1486_743)">
<path d="M246.25 128.5C246.25 194.084 193.084 247.25 127.5 247.25M246.25 128.5C246.25 62.9162 193.084 9.75 127.5 9.75M246.25 128.5H8.75M127.5 247.25C61.9162 247.25 8.75 194.084 8.75 128.5M127.5 247.25C97.0078 215.233 80 172.714 80 128.5C80 84.2863 97.0078 41.7668 127.5 9.75M127.5 247.25C157.992 215.233 175 172.714 175 128.5C175 84.2863 157.992 41.7668 127.5 9.75M8.75 128.5C8.75 62.9162 61.9162 9.75 127.5 9.75" stroke="white" stroke-width="18" stroke-linecap="round" stroke-linejoin="round"/>
</g>
<defs>
<clipPath id="clip0_1486_743">
<rect width="256" height="256" fill="white"/>
</clipPath>
</defs>
</svg>
