<svg width="365" height="512" viewBox="0 0 365 512" fill="none" xmlns="http://www.w3.org/2000/svg">
<path fill-rule="evenodd" clip-rule="evenodd" d="M319.72 13.4036C345.56 14.7895 365.384 36.86 363.998 62.6994L342.279 467.654C340.893 493.494 318.822 513.317 292.983 511.932L44.3457 498.596C18.5062 497.211 -1.31739 475.14 0.0684536 449.301L21.7874 44.3457C23.1732 18.5062 45.2438 -1.31734 71.0832 0.0684478L319.72 13.4036ZM137.911 213.959C130.158 213.56 123.549 219.52 123.15 227.273L117.223 342.391C116.824 350.143 122.785 356.752 130.537 357.151L248.411 363.224C256.163 363.623 262.771 357.662 263.171 349.909L269.099 234.79C269.497 227.038 263.536 220.43 255.783 220.03L137.911 213.959ZM141.196 152.991C133.444 152.592 126.834 158.586 126.435 166.339C126.035 174.091 131.994 180.732 139.747 181.132L257.858 187.218C265.611 187.617 272.22 181.62 272.62 173.867C273.019 166.115 267.06 159.472 259.308 159.072L141.196 152.991Z" fill="white"/>
<path d="M44.0329 498.575C18.3467 497.029 -1.31179 475.035 0.0684536 449.301L21.7874 44.3457C23.1676 18.6108 45.0657 -1.15458 70.77 0.054953L44.0329 498.575Z" fill="#FFE2A9"/>
</svg>
