<svg width="392" height="89" viewBox="0 0 392 89" fill="none" xmlns="http://www.w3.org/2000/svg">
<path fill-rule="evenodd" clip-rule="evenodd" d="M55.3261 2.32965C59.7976 2.57055 63.2279 6.40706 62.9882 10.8987L59.2298 81.2914C58.99 85.7831 55.1707 89.229 50.6993 88.9881L11.3977 86.8707L16.0246 0.212265L55.3261 2.32965ZM26.6197 37.0066C25.2782 36.9373 24.1344 37.9736 24.0653 39.3212L23.0397 59.3321C22.9707 60.6796 24.0022 61.8283 25.3436 61.8978L45.7412 62.9534C47.0828 63.0229 48.2265 61.9865 48.2956 60.6389L49.3212 40.628C49.3902 39.2804 48.3585 38.1317 47.017 38.0623L26.6197 37.0066ZM27.1881 26.355C25.8467 26.2858 24.7029 27.3277 24.6337 28.6752C24.5646 30.0227 25.5958 31.1771 26.9373 31.2467L47.376 32.3046C48.7176 32.374 49.8616 31.3316 49.9307 29.9839C49.9998 28.6363 48.9685 27.4815 47.6269 27.4121L27.1881 26.355Z" fill="url(#paint0_linear_1365_656)"/>
<path fill-rule="evenodd" clip-rule="evenodd" d="M55.3261 2.32965C59.7976 2.57055 63.2279 6.40706 62.9882 10.8987L59.2298 81.2914C58.99 85.7831 55.1707 89.229 50.6993 88.9881L11.3977 86.8707L16.0246 0.212265L55.3261 2.32965ZM26.6197 37.0066C25.2782 36.9373 24.1344 37.9736 24.0653 39.3212L23.0397 59.3321C22.9707 60.6796 24.0022 61.8283 25.3436 61.8978L45.7412 62.9534C47.0828 63.0229 48.2265 61.9865 48.2956 60.6389L49.3212 40.628C49.3902 39.2804 48.3585 38.1317 47.017 38.0623L26.6197 37.0066ZM27.1881 26.355C25.8467 26.2858 24.7029 27.3277 24.6337 28.6752C24.5646 30.0227 25.5958 31.1771 26.9373 31.2467L47.376 32.3046C48.7176 32.374 49.8616 31.3316 49.9307 29.9839C49.9998 28.6363 48.9685 27.4815 47.6269 27.4121L27.1881 26.355Z" fill="white"/>
<path d="M7.61953 86.6664C7.48064 86.658 7.34271 86.6461 7.20593 86.6308C6.9063 86.5974 6.61191 86.5476 6.32366 86.4826C6.314 86.4805 6.3043 86.4785 6.29466 86.4763C6.19795 86.4541 6.10198 86.4301 6.00669 86.4045C5.61255 86.2987 5.23074 86.1641 4.86359 86.0031C4.85626 85.9999 4.84895 85.9966 4.84164 85.9934C4.58804 85.8813 4.34158 85.7564 4.10275 85.6199C3.99377 85.5576 3.88629 85.4931 3.78061 85.4259C3.55547 85.283 3.33799 85.1292 3.12883 84.9655C2.93089 84.8105 2.74042 84.6466 2.55798 84.4743C2.41266 84.3372 2.27265 84.1945 2.13781 84.0471C1.96093 83.8537 1.79337 83.6518 1.63569 83.442C1.56629 83.3498 1.49867 83.2561 1.43318 83.1608C1.23243 82.8689 1.05031 82.5634 0.888383 82.246C0.839583 82.1504 0.79275 82.0537 0.747665 81.956C0.606566 81.6501 0.483741 81.3344 0.380823 81.0101C0.342942 80.8908 0.307825 80.7703 0.275368 80.6487C0.186023 80.314 0.1175 79.9712 0.07117 79.6219C0.0642077 79.5694 0.0578052 79.5167 0.0518511 79.4639C0.00163807 79.0187 -0.012926 78.5634 0.011757 78.1011L3.77014 7.70829C3.77811 7.55906 3.78998 7.41099 3.80575 7.26416C3.87108 6.6556 4.00224 6.0685 4.192 5.50982C4.28337 5.24081 4.38837 4.9784 4.50597 4.72333C4.72046 4.25808 4.97721 3.81735 5.27092 3.4057C5.39085 3.23761 5.51692 3.07435 5.64884 2.91629C5.9742 2.52648 6.33506 2.16828 6.72594 1.8462C6.77499 1.80579 6.82454 1.76576 6.87453 1.7265C6.91272 1.69651 6.95129 1.66699 6.99001 1.63767C7.00547 1.62598 7.02076 1.61406 7.0363 1.60247C7.20595 1.47594 7.38075 1.35614 7.56005 1.24305C7.87245 1.04599 8.19884 0.869767 8.5373 0.716373C8.86433 0.568191 9.20266 0.441426 9.55027 0.337382C9.83381 0.2525 10.1235 0.182787 10.4185 0.129277C10.5457 0.10622 10.6738 0.0862561 10.8029 0.0692709C10.8078 0.0686265 10.8126 0.0677752 10.8175 0.0671397C10.943 0.0508517 11.0694 0.0377032 11.1966 0.027291C11.2725 0.0210638 11.3487 0.0158242 11.4252 0.0117326C11.5524 0.00493742 11.6803 0.00106768 11.8088 0.000273057C11.8188 0.000211458 11.8287 4.94697e-05 11.8387 2.43391e-05C11.9672 -0.000298909 12.0963 0.00260299 12.226 0.00841121C12.2327 0.00871432 12.2395 0.00891978 12.2463 0.00923978L7.61953 86.6664Z" fill="url(#paint1_linear_1365_656)"/>
<path d="M7.61953 86.6664C7.48064 86.658 7.34271 86.6461 7.20593 86.6308C6.9063 86.5974 6.61191 86.5476 6.32366 86.4826C6.314 86.4805 6.3043 86.4785 6.29466 86.4763C6.19795 86.4541 6.10198 86.4301 6.00669 86.4045C5.61255 86.2987 5.23074 86.1641 4.86359 86.0031C4.85626 85.9999 4.84895 85.9966 4.84164 85.9934C4.58804 85.8813 4.34158 85.7564 4.10275 85.6199C3.99377 85.5576 3.88629 85.4931 3.78061 85.4259C3.55547 85.283 3.33799 85.1292 3.12883 84.9655C2.93089 84.8105 2.74042 84.6466 2.55798 84.4743C2.41266 84.3372 2.27265 84.1945 2.13781 84.0471C1.96093 83.8537 1.79337 83.6518 1.63569 83.442C1.56629 83.3498 1.49867 83.2561 1.43318 83.1608C1.23243 82.8689 1.05031 82.5634 0.888383 82.246C0.839583 82.1504 0.79275 82.0537 0.747665 81.956C0.606566 81.6501 0.483741 81.3344 0.380823 81.0101C0.342942 80.8908 0.307825 80.7703 0.275368 80.6487C0.186023 80.314 0.1175 79.9712 0.07117 79.6219C0.0642077 79.5694 0.0578052 79.5167 0.0518511 79.4639C0.00163807 79.0187 -0.012926 78.5634 0.011757 78.1011L3.77014 7.70829C3.77811 7.55906 3.78998 7.41099 3.80575 7.26416C3.87108 6.6556 4.00224 6.0685 4.192 5.50982C4.28337 5.24081 4.38837 4.9784 4.50597 4.72333C4.72046 4.25808 4.97721 3.81735 5.27092 3.4057C5.39085 3.23761 5.51692 3.07435 5.64884 2.91629C5.9742 2.52648 6.33506 2.16828 6.72594 1.8462C6.77499 1.80579 6.82454 1.76576 6.87453 1.7265C6.91272 1.69651 6.95129 1.66699 6.99001 1.63767C7.00547 1.62598 7.02076 1.61406 7.0363 1.60247C7.20595 1.47594 7.38075 1.35614 7.56005 1.24305C7.87245 1.04599 8.19884 0.869767 8.5373 0.716373C8.86433 0.568191 9.20266 0.441426 9.55027 0.337382C9.83381 0.2525 10.1235 0.182787 10.4185 0.129277C10.5457 0.10622 10.6738 0.0862561 10.8029 0.0692709C10.8078 0.0686265 10.8126 0.0677752 10.8175 0.0671397C10.943 0.0508517 11.0694 0.0377032 11.1966 0.027291C11.2725 0.0210638 11.3487 0.0158242 11.4252 0.0117326C11.5524 0.00493742 11.6803 0.00106768 11.8088 0.000273057C11.8188 0.000211458 11.8287 4.94697e-05 11.8387 2.43391e-05C11.9672 -0.000298909 12.0963 0.00260299 12.226 0.00841121C12.2327 0.00871432 12.2395 0.00891978 12.2463 0.00923978L7.61953 86.6664Z" fill="white"/>
<path d="M97.8516 44.55C97.8516 41.15 98.6349 38.1 100.202 35.4C101.802 32.7 103.952 30.6 106.652 29.1C109.385 27.5667 112.368 26.8 115.602 26.8C119.302 26.8 122.585 27.7167 125.452 29.55C128.352 31.35 130.452 33.9167 131.752 37.25H124.902C124.002 35.4167 122.752 34.05 121.152 33.15C119.552 32.25 117.702 31.8 115.602 31.8C113.302 31.8 111.252 32.3167 109.452 33.35C107.652 34.3833 106.235 35.8667 105.202 37.8C104.202 39.7333 103.702 41.9833 103.702 44.55C103.702 47.1167 104.202 49.3667 105.202 51.3C106.235 53.2333 107.652 54.7333 109.452 55.8C111.252 56.8333 113.302 57.35 115.602 57.35C117.702 57.35 119.552 56.9 121.152 56C122.752 55.1 124.002 53.7333 124.902 51.9H131.752C130.452 55.2333 128.352 57.8 125.452 59.6C122.585 61.4 119.302 62.3 115.602 62.3C112.335 62.3 109.352 61.55 106.652 60.05C103.952 58.5167 101.802 56.4 100.202 53.7C98.6349 51 97.8516 47.95 97.8516 44.55Z" fill="white"/>
<path d="M143.323 30.8C142.29 30.8 141.423 30.45 140.723 29.75C140.023 29.05 139.673 28.1833 139.673 27.15C139.673 26.1167 140.023 25.25 140.723 24.55C141.423 23.85 142.29 23.5 143.323 23.5C144.323 23.5 145.173 23.85 145.873 24.55C146.573 25.25 146.923 26.1167 146.923 27.15C146.923 28.1833 146.573 29.05 145.873 29.75C145.173 30.45 144.323 30.8 143.323 30.8ZM146.123 34.45V62H140.423V34.45H146.123Z" fill="white"/>
<path d="M162.257 39.1V54.35C162.257 55.3833 162.49 56.1333 162.957 56.6C163.457 57.0333 164.29 57.25 165.457 57.25H168.957V62H164.457C161.89 62 159.924 61.4 158.557 60.2C157.19 59 156.507 57.05 156.507 54.35V39.1H153.257V34.45H156.507V27.6H162.257V34.45H168.957V39.1H162.257Z" fill="white"/>
<path d="M181.911 38.45C182.744 37.05 183.844 35.9667 185.211 35.2C186.611 34.4 188.261 34 190.161 34V39.9H188.711C186.477 39.9 184.777 40.4667 183.611 41.6C182.477 42.7333 181.911 44.7 181.911 47.5V62H176.211V34.45H181.911V38.45Z" fill="white"/>
<path d="M209.35 62.45C206.75 62.45 204.4 61.8667 202.3 60.7C200.2 59.5 198.55 57.8333 197.35 55.7C196.15 53.5333 195.55 51.0333 195.55 48.2C195.55 45.4 196.167 42.9167 197.4 40.75C198.633 38.5833 200.317 36.9167 202.45 35.75C204.583 34.5833 206.967 34 209.6 34C212.233 34 214.617 34.5833 216.75 35.75C218.883 36.9167 220.567 38.5833 221.8 40.75C223.033 42.9167 223.65 45.4 223.65 48.2C223.65 51 223.017 53.4833 221.75 55.65C220.483 57.8167 218.75 59.5 216.55 60.7C214.383 61.8667 211.983 62.45 209.35 62.45ZM209.35 57.5C210.817 57.5 212.183 57.15 213.45 56.45C214.75 55.75 215.8 54.7 216.6 53.3C217.4 51.9 217.8 50.2 217.8 48.2C217.8 46.2 217.417 44.5167 216.65 43.15C215.883 41.75 214.867 40.7 213.6 40C212.333 39.3 210.967 38.95 209.5 38.95C208.033 38.95 206.667 39.3 205.4 40C204.167 40.7 203.183 41.75 202.45 43.15C201.717 44.5167 201.35 46.2 201.35 48.2C201.35 51.1667 202.1 53.4667 203.6 55.1C205.133 56.7 207.05 57.5 209.35 57.5Z" fill="white"/>
<path d="M245.185 34C247.351 34 249.285 34.45 250.985 35.35C252.718 36.25 254.068 37.5833 255.035 39.35C256.001 41.1167 256.485 43.25 256.485 45.75V62H250.835V46.6C250.835 44.1333 250.218 42.25 248.985 40.95C247.751 39.6167 246.068 38.95 243.935 38.95C241.801 38.95 240.101 39.6167 238.835 40.95C237.601 42.25 236.985 44.1333 236.985 46.6V62H231.285V34.45H236.985V37.6C237.918 36.4667 239.101 35.5833 240.535 34.95C242.001 34.3167 243.551 34 245.185 34Z" fill="white"/>
<path d="M277.705 62.45C275.105 62.45 272.755 61.8667 270.655 60.7C268.555 59.5 266.905 57.8333 265.705 55.7C264.505 53.5333 263.905 51.0333 263.905 48.2C263.905 45.4 264.522 42.9167 265.755 40.75C266.989 38.5833 268.672 36.9167 270.805 35.75C272.939 34.5833 275.322 34 277.955 34C280.589 34 282.972 34.5833 285.105 35.75C287.239 36.9167 288.922 38.5833 290.155 40.75C291.389 42.9167 292.005 45.4 292.005 48.2C292.005 51 291.372 53.4833 290.105 55.65C288.839 57.8167 287.105 59.5 284.905 60.7C282.739 61.8667 280.339 62.45 277.705 62.45ZM277.705 57.5C279.172 57.5 280.539 57.15 281.805 56.45C283.105 55.75 284.155 54.7 284.955 53.3C285.755 51.9 286.155 50.2 286.155 48.2C286.155 46.2 285.772 44.5167 285.005 43.15C284.239 41.75 283.222 40.7 281.955 40C280.689 39.3 279.322 38.95 277.855 38.95C276.389 38.95 275.022 39.3 273.755 40C272.522 40.7 271.539 41.75 270.805 43.15C270.072 44.5167 269.705 46.2 269.705 48.2C269.705 51.1667 270.455 53.4667 271.955 55.1C273.489 56.7 275.405 57.5 277.705 57.5Z" fill="white"/>
<path d="M306.29 39.1V54.35C306.29 55.3833 306.524 56.1333 306.99 56.6C307.49 57.0333 308.324 57.25 309.49 57.25H312.99V62H308.49C305.924 62 303.957 61.4 302.59 60.2C301.224 59 300.54 57.05 300.54 54.35V39.1H297.29V34.45H300.54V27.6H306.29V34.45H312.99V39.1H306.29Z" fill="white"/>
<path d="M345.494 47.55C345.494 48.5833 345.427 49.5167 345.294 50.35H324.244C324.41 52.55 325.227 54.3167 326.694 55.65C328.16 56.9833 329.96 57.65 332.094 57.65C335.16 57.65 337.327 56.3667 338.594 53.8H344.744C343.91 56.3333 342.394 58.4167 340.194 60.05C338.027 61.65 335.327 62.45 332.094 62.45C329.46 62.45 327.094 61.8667 324.994 60.7C322.927 59.5 321.294 57.8333 320.094 55.7C318.927 53.5333 318.344 51.0333 318.344 48.2C318.344 45.3667 318.91 42.8833 320.044 40.75C321.21 38.5833 322.827 36.9167 324.894 35.75C326.994 34.5833 329.394 34 332.094 34C334.694 34 337.01 34.5667 339.044 35.7C341.077 36.8333 342.66 38.4333 343.794 40.5C344.927 42.5333 345.494 44.8833 345.494 47.55ZM339.544 45.75C339.51 43.65 338.76 41.9667 337.294 40.7C335.827 39.4333 334.01 38.8 331.844 38.8C329.877 38.8 328.194 39.4333 326.794 40.7C325.394 41.9333 324.56 43.6167 324.294 45.75H339.544Z" fill="white"/>
<path d="M367.241 34.55C367.441 31.45 368.625 29.0333 370.791 27.3C372.991 25.5667 375.791 24.7 379.191 24.7C381.525 24.7 383.541 25.1167 385.241 25.95C386.941 26.7833 388.225 27.9167 389.091 29.35C389.958 30.7833 390.391 32.4 390.391 34.2C390.391 36.2667 389.841 38.0333 388.741 39.5C387.641 40.9667 386.325 41.95 384.791 42.45V42.65C386.758 43.25 388.291 44.35 389.391 45.95C390.491 47.5167 391.041 49.5333 391.041 52C391.041 53.9667 390.591 55.7167 389.691 57.25C388.791 58.7833 387.458 60 385.691 60.9C383.925 61.7667 381.808 62.2 379.341 62.2C375.741 62.2 372.775 61.2833 370.441 59.45C368.141 57.5833 366.908 54.9167 366.741 51.45H372.241C372.375 53.2167 373.058 54.6667 374.291 55.8C375.525 56.9 377.191 57.45 379.291 57.45C381.325 57.45 382.891 56.9 383.991 55.8C385.091 54.6667 385.641 53.2167 385.641 51.45C385.641 49.1167 384.891 47.4667 383.391 46.5C381.925 45.5 379.658 45 376.591 45H375.291V40.3H376.641C379.341 40.2667 381.391 39.8167 382.791 38.95C384.225 38.0833 384.941 36.7167 384.941 34.85C384.941 33.25 384.425 31.9833 383.391 31.05C382.358 30.0833 380.891 29.6 378.991 29.6C377.125 29.6 375.675 30.0833 374.641 31.05C373.608 31.9833 372.991 33.15 372.791 34.55H367.241Z" fill="white"/>
<defs>
<linearGradient id="paint0_linear_1365_656" x1="31.5" y1="0" x2="31.5" y2="89" gradientUnits="userSpaceOnUse">
<stop stop-color="white"/>
<stop offset="1" stop-color="#CECECE"/>
</linearGradient>
<linearGradient id="paint1_linear_1365_656" x1="31.5" y1="0" x2="31.5" y2="89" gradientUnits="userSpaceOnUse">
<stop stop-color="white"/>
<stop offset="1" stop-color="#CECECE"/>
</linearGradient>
</defs>
</svg>
